{
.appVersion = "965";
copyright = "Copyright 2017 Google Inc. All Rights Reserved.";
customParameters = (
{
name = glyphOrder;
value = (
.notdef,
NULL,
CR,
space,
u10C00,
u10C01,
u10C02,
u10C03,
u10C04,
u10C05,
u10C06,
u10C07,
u10C08,
u10C09,
u10C0A,
u10C0B,
u10C0C,
u10C0D,
u10C0E,
u10C0F,
u10C10,
u10C11,
u10C12,
u10C13,
u10C14,
u10C15,
u10C16,
u10C17,
u10C18,
u10C19,
u10C1A,
u10C1B,
u10C1C,
u10C1D,
u10C1E,
u10C1F,
u10C20,
u10C21,
u10C22,
u10C23,
u10C24,
u10C25,
u10C26,
u10C27,
u10C28,
u10C29,
u10C2A,
u10C2B,
u10C2C,
u10C2D,
u10C2E,
u10C2F,
u10C30,
u10C31,
u10C32,
u10C33,
u10C34,
u10C35,
u10C36,
u10C37,
u10C38,
u10C39,
u10C3A,
u10C3B,
u10C3C,
u10C3D,
u10C3E,
u10C3F,
u10C40,
u10C41,
u10C42,
u10C43,
u10C44,
u10C45,
u10C46,
u10C47,
u10C48,
uni00A0
);
},
{
name = description;
value = "Designed by Monotype design team.";
},
{
name = license;
value = "This Font Software is licensed under the SIL Open Font License, Version 1.1. This Font Software is distributed on an \"AS IS\" BASIS, WITHOUT WARRANTIES OR CONDITIONS OF ANY KIND, either express or implied. See the SIL Open Font License for the specific language, permissions and limitations governing your use of this Font Software.";
},
{
name = licenseURL;
value = "http://scripts.sil.org/OFL";
},
{
name = vendorID;
value = GOOG;
},
{
name = unicodeRanges;
value = (
0,
1,
57
);
},
{
name = trademark;
value = "Noto is a trademark of Google Inc.";
},
{
name = "Has WWS Names";
value = 1;
},
{
name = versionString;
value = "Version 2.000";
},
{
name = fsType;
value = (
);
},
{
name = codePageRanges;
value = (
"1252"
);
}
);
date = "2017-01-27 19:10:01 +0000";
designer = "Monotype Design Team";
designerURL = "http://www.monotype.com/studio";
disablesAutomaticAlignment = 1;
disablesNiceNames = 1;
familyName = "Noto Sans Old Turkic";
fontMaster = (
{
alignmentZones = (
"{1069, 15}",
"{714, 15}",
"{536, 15}",
"{0, -15}",
"{-293, -15}"
);
ascender = 1069;
capHeight = 714;
customParameters = (
{
name = typoAscender;
value = 1069;
},

glyphs = (
{
glyphname = .notdef;
lastChange = "2017-02-03 19:10:42 +0000";
layers = (
{
layerId = UUID0;
paths = (
{
closed = 1;
nodes = (
"505 0 LINE",
"505 714 LINE",
"94 714 LINE",
"94 0 LINE"
);
},
{
closed = 1;
nodes = (
"145 663 LINE",
"454 663 LINE",
"454 51 LINE",
"145 51 LINE"
);
}
);
width = 600;
}
);
},
{
glyphname = u10C00;
lastChange = "2017-02-03 19:10:42 +0000";
layers = (
{
layerId = UUID0;
paths = (
{
closed = 1;
nodes = (
"369 0 LINE",
"369 612 LINE",
"588 455 LINE",
"637 525 LINE",
"369 714 LINE",
"279 714 LINE",
"279 103 LINE",
"71 252 LINE",
"20 179 LINE",
"279 0 LINE"
);
}
);
width = 657;
}
);
unicode = 10C00;
},
{
glyphname = u10C01;
lastChange = "2017-02-03 19:10:42 +0000";
layers = (
{
layerId = UUID0;
paths = (
{
closed = 1;
nodes = (
"378 0 LINE",
"637 179 LINE",
"586 252 LINE",
"378 103 LINE",
"378 714 LINE",
"288 714 LINE",
"20 525 LINE",
"69 455 LINE",
"288 612 LINE",
"288 0 LINE"
);
}
);
width = 657;
}
);
unicode = 10C01;
},
{
glyphname = u10C02;
lastChange = "2017-02-03 19:10:42 +0000";
layers = (
{
layerId = UUID0;
paths = (
{
closed = 1;
nodes = (
"273 202 LINE",
"428 -14 LINE",
"501 31 LINE",
"319 283 LINE",
"319 426 LINE",
"501 678 LINE",
"428 723 LINE",
"273 507 LINE",
"118 723 LINE",
"45 678 LINE",
"227 426 LINE",
"227 283 LINE",
"45 31 LINE",
"118 -14 LINE"
);
}
);
width = 546;
}
);
unicode = 10C02;
},
{
glyphname = u10C03;
lastChange = "2017-02-03 19:10:42 +0000";
layers = (
{
layerId = UUID0;
paths = (
{
closed = 1;
nodes = (
"190 0 LINE",
"190 612 LINE",
"409 455 LINE",
"458 525 LINE",
"190 714 LINE",
"100 714 LINE",
"100 0 LINE"
);
}
);
width = 478;
}
);
unicode = 10C03;
},
{
glyphname = u10C04;
lastChange = "2017-02-03 19:10:42 +0000";
layers = (
{
layerId = UUID0;
paths = (
{
closed = 1;
nodes = (
"190 0 LINE",
"190 351 LINE",
"409 194 LINE",
"458 264 LINE",
"190 453 LINE",
"190 714 LINE",
"100 714 LINE",
"100 0 LINE"
);
}
);
width = 478;
}
);
unicode = 10C04;
},
{
glyphname = u10C05;
lastChange = "2017-02-03 19:10:42 +0000";
layers = (
{
layerId = UUID0;
paths = (
{
closed = 1;
nodes = (
"163 23 OFFCURVE",
"212 56 OFFCURVE",
"254 90 CURVE",
"296 56 OFFCURVE",
"345 23 OFFCURVE",
"401 -9 CURVE",
"449 56 LINE",
"397 85 OFFCURVE",
"353 115 OFFCURVE",
"316 145 CURVE",
"382 213 OFFCURVE",
"419 285 OFFCURVE",
"419 361 CURVE SMOOTH",
"419 437 OFFCURVE",
"382 508 OFFCURVE",
"316 576 CURVE",
"353 606 OFFCURVE",
"397 636 OFFCURVE",
"449 666 CURVE",
"401 731 LINE",
"345 699 OFFCURVE",
"296 666 OFFCURVE",
"254 632 CURVE",
"212 666 OFFCURVE",
"163 699 OFFCURVE",
"108 731 CURVE",
"60 666 LINE",
"111 636 OFFCURVE",
"155 606 OFFCURVE",
"193 576 CURVE",
"127 508 OFFCURVE",
"90 437 OFFCURVE",
"90 361 CURVE SMOOTH",
"90 285 OFFCURVE",
"127 213 OFFCURVE",
"193 145 CURVE",
"155 115 OFFCURVE",
"111 85 OFFCURVE",
"60 56 CURVE",
"108 -9 LINE"
);
},
{
closed = 1;
nodes = (
"204 255 OFFCURVE",
"178 309 OFFCURVE",
"178 361 CURVE SMOOTH",
"178 413 OFFCURVE",
"204 466 OFFCURVE",
"254 520 CURVE",
"305 466 OFFCURVE",
"331 413 OFFCURVE",
"331 361 CURVE SMOOTH",
"331 309 OFFCURVE",
"305 255 OFFCURVE",
"254 201 CURVE"
);
}
);
width = 509;
}
);
unicode = 10C05;
},
{
glyphname = u10C06;
lastChange = "2017-02-03 19:10:42 +0000";
layers = (
{
layerId = UUID0;
paths = (
{
closed = 1;
nodes = (
"190 0 LINE",
"190 47 LINE SMOOTH",
"190 167 OFFCURVE",
"202 207 OFFCURVE",
"387 357 CURVE",
"202 507 OFFCURVE",
"190 547 OFFCURVE",
"190 667 CURVE SMOOTH",
"190 714 LINE",
"100 714 LINE",
"100 649 LINE SMOOTH",
"100 537 OFFCURVE",
"118 472 OFFCURVE",
"256 357 CURVE",
"118 242 OFFCURVE",
"100 177 OFFCURVE",
"100 65 CURVE SMOOTH",
"100 0 LINE"
);
}
);
width = 412;
}
);
unicode = 10C06;
},
{
glyphname = u10C07;
lastChange = "2017-02-03 19:10:42 +0000";
layers = (
{
layerId = UUID0;
paths = (
{
closed = 1;
nodes = (
"190 0 LINE",
"190 588 LINE",
"436 311 LINE",
"526 311 LINE",
"526 714 LINE",
"436 714 LINE",
"436 441 LINE",
"190 714 LINE",
"100 714 LINE",
"100 0 LINE"
);
}
);
width = 601;
}
);
unicode = 10C07;
},
{
glyphname = u10C08;
lastChange = "2017-02-03 19:10:42 +0000";
layers = (
{
layerId = UUID0;
paths = (
{
closed = 1;
nodes = (
"190 0 LINE",
"190 417 LINE",
"465 259 LINE",
"519 304 LINE",
"494 364 OFFCURVE",
"480 427 OFFCURVE",
"480 499 CURVE SMOOTH",
"480 571 OFFCURVE",
"502 644 OFFCURVE",
"546 714 CURVE",
"451 714 LINE",
"416 650 OFFCURVE",
"393 585 OFFCURVE",
"393 504 CURVE SMOOTH",
"393 469 OFFCURVE",
"396 421 OFFCURVE",
"410 381 CURVE",
"190 509 LINE",
"190 714 LINE",
"100 714 LINE",
"100 0 LINE"
);
}
);
width = 606;
}
);
unicode = 10C08;
},
{
glyphname = u10C09;
lastChange = "2017-02-03 19:10:42 +0000";
layers = (
{
layerId = UUID0;
paths = (
{
closed = 1;
nodes = (
"457 -10 OFFCURVE",
"549 115 OFFCURVE",
"549 242 CURVE SMOOTH",
"549 386 OFFCURVE",
"480 455 OFFCURVE",
"394 527 CURVE SMOOTH",
"361 555 OFFCURVE",
"351 575 OFFCURVE",
"351 604 CURVE SMOOTH",
"351 714 LINE",
"261 714 LINE",
"261 601 LINE SMOOTH",
"261 542 OFFCURVE",
"277 508 OFFCURVE",
"342 454 CURVE SMOOTH",
"416 392 OFFCURVE",
"459 338 OFFCURVE",
"459 242 CURVE SMOOTH",
"459 144 OFFCURVE",
"398 73 OFFCURVE",
"298 73 CURVE SMOOTH",
"195 73 OFFCURVE",
"140 146 OFFCURVE",
"140 237 CURVE SMOOTH",
"140 304 OFFCURVE",
"163 365 OFFCURVE",
"181 392 CURVE",
"90 392 LINE",
"73 368 OFFCURVE",
"50 310 OFFCURVE",
"50 237 CURVE SMOOTH",
"50 91 OFFCURVE",
"140 -10 OFFCURVE",
"296 -10 CURVE SMOOTH"
);
}
);
width = 599;
}
);
unicode = 10C09;
},
{
glyphname = u10C0A;
lastChange = "2017-02-03 19:10:42 +0000";
layers = (
{
layerId = UUID0;
paths = (
{
closed = 1;
nodes = (
"749 357 LINE",
"382 724 LINE",
"15 357 LINE",
"74 298 LINE",
"382 606 LINE",
"631 357 LINE",
"323 49 LINE",
"382 -10 LINE"
);
}
);
width = 764;
}
);
unicode = 10C0A;
},
{
glyphname = u10C0B;
lastChange = "2017-02-03 19:10:42 +0000";
layers = (
{
layerId = UUID0;
paths = (
{
closed = 1;
nodes = (
"147 0 LINE",
"291 175 LINE",
"435 0 LINE",
"544 0 LINE",
"349 230 LINE",
"544 461 LINE",
"336 714 LINE",
"242 714 LINE",
"38 461 LINE",
"233 230 LINE",
"38 0 LINE"
);
},
{
closed = 1;
nodes = (
"141 463 LINE",
"289 648 LINE",
"441 463 LINE",
"291 286 LINE"
);
}
);
width = 582;
}
);
unicode = 10C0B;
},
{
glyphname = u10C0C;
lastChange = "2017-02-03 19:10:42 +0000";
layers = (
{
layerId = UUID0;
paths = (
{
closed = 1;
nodes = (
"239 0 LINE",
"388 170 LINE",
"536 0 LINE",
"641 0 LINE",
"440 230 LINE",
"592 403 LINE",
"710 282 LINE",
"762 335 LINE",
"389 724 LINE",
"15 335 LINE",
"70 282 LINE",
"185 402 LINE",
"335 230 LINE",
"134 0 LINE"
);
},
{
closed = 1;
nodes = (
"240 460 LINE",
"389 614 LINE",
"537 460 LINE",
"388 290 LINE"
);
}
);
width = 777;
}
);
unicode = 10C0C;
},
{
glyphname = u10C0D;
lastChange = "2017-02-03 19:10:42 +0000";
layers = (
{
layerId = UUID0;
paths = (
{
closed = 1;
nodes = (
"696 302 LINE",
"583 363 OFFCURVE",
"532 427 OFFCURVE",
"532 479 CURVE SMOOTH",
"532 529 OFFCURVE",
"587 593 OFFCURVE",
"696 655 CURVE",
"649 720 LINE",
"522 647 OFFCURVE",
"443 568 OFFCURVE",
"443 479 CURVE",
"443 391 OFFCURVE",
"524 312 OFFCURVE",
"649 237 CURVE"
);
},
{
closed = 1;
nodes = (
"412 0 LINE",
"412 375 LINE",
"323 375 LINE",
"323 0 LINE"
);
},
{
closed = 1;
nodes = (
"212 312 OFFCURVE",
"293 391 OFFCURVE",
"293 479 CURVE SMOOTH",
"293 568 OFFCURVE",
"214 647 OFFCURVE",
"87 720 CURVE",
"40 655 LINE",
"149 593 OFFCURVE",
"204 529 OFFCURVE",
"204 479 CURVE SMOOTH",
"204 427 OFFCURVE",
"153 363 OFFCURVE",
"40 302 CURVE",
"87 237 LINE"
);
}
);
width = 736;
}
);
unicode = 10C0D;
},
{
glyphname = u10C0E;
lastChange = "2017-02-03 19:10:42 +0000";
layers = (
{
layerId = UUID0;
paths = (
{
closed = 1;
nodes = (
"631 339 LINE",
"631 714 LINE",
"541 714 LINE",
"541 339 LINE"
);
},
{
closed = 1;
nodes = (
"403 0 LINE",
"403 375 LINE",
"313 375 LINE",
"313 0 LINE"
);
},
{
closed = 1;
nodes = (
"175 339 LINE",
"175 714 LINE",
"85 714 LINE",
"85 339 LINE"
);
}
);
width = 716;
}
);
unicode = 10C0E;
},
{
glyphname = u10C0F;
lastChange = "2017-02-03 19:10:42 +0000";
layers = (
{
layerId = UUID0;
paths = (
{
closed = 1;
nodes = (
"379 56 LINE",
"200 155 OFFCURVE",
"138 272 OFFCURVE",
"138 371 CURVE SMOOTH",
"138 389 OFFCURVE",
"139 408 OFFCURVE",
"142 426 CURVE",
"398 254 LINE",
"449 321 LINE",
"171 505 LINE",
"196 546 OFFCURVE",
"236 588 OFFCURVE",
"302 632 CURVE",
"432 526 LINE",
"485 588 LINE",
"311 731 LINE",
"118 619 OFFCURVE",
"50 507 OFFCURVE",
"50 371 CURVE SMOOTH",
"50 235 OFFCURVE",
"138 103 OFFCURVE",
"331 -9 CURVE"
);
}
);
width = 500;
}
);
unicode = 10C0F;
},
{
glyphname = u10C10;
lastChange = "2017-02-03 19:10:42 +0000";
layers = (
{
layerId = UUID0;
paths = (
{
closed = 1;
nodes = (
"253 202 LINE",
"408 -14 LINE",
"481 31 LINE",
"298 283 LINE",
"298 499 LINE",
"383 600 LINE",
"484 500 LINE",
"547 560 LINE",
"383 724 LINE",
"208 525 LINE",
"208 283 LINE",
"25 31 LINE",
"98 -14 LINE"
);
}
);
width = 562;
}
);
unicode = 10C10;
},
{
glyphname = u10C11;
lastChange = "2017-02-03 19:10:42 +0000";
layers = (
{
layerId = UUID0;
paths = (
{
closed = 1;
nodes = (
"599 180 LINE",
"599 184 LINE",
"429 346 LINE",
"429 350 LINE",
"599 530 LINE",
"599 534 LINE",
"412 738 LINE",
"342 682 LINE",
"479 534 LINE",
"479 530 LINE",
"307 350 LINE",
"307 345 LINE",
"479 184 LINE",
"479 180 LINE",
"322 30 LINE",
"380 -33 LINE"
);
},
{
closed = 1;
nodes = (
"312 180 LINE",
"312 184 LINE",
"142 346 LINE",
"142 350 LINE",
"312 530 LINE",
"312 534 LINE",
"125 738 LINE",
"55 682 LINE",
"192 534 LINE",
"192 530 LINE",
"20 350 LINE",
"20 345 LINE",
"192 184 LINE",
"192 180 LINE",
"35 30 LINE",
"93 -33 LINE"
);
}
);
width = 619;
}
);
unicode = 10C11;
},
{
glyphname = u10C12;
lastChange = "2017-02-03 19:10:42 +0000";
layers = (
{
layerId = UUID0;
paths = (
{
closed = 1;
nodes = (
"636 37 LINE",
"429 236 LINE",
"429 240 LINE",
"660 481 LINE",
"660 485 LINE",
"416 738 LINE",
"346 682 LINE",
"540 485 LINE",
"540 481 LINE",
"307 240 LINE",
"307 235 LINE",
"578 -24 LINE"
);
},
{
closed = 1;
nodes = (
"349 37 LINE",
"142 236 LINE",
"142 240 LINE",
"373 481 LINE",
"373 485 LINE",
"129 738 LINE",
"59 682 LINE",
"253 485 LINE",
"253 481 LINE",
"20 240 LINE",
"20 235 LINE",
"291 -24 LINE"
);
}
);
width = 680;
}
);
unicode = 10C12;
},
{
glyphname = u10C13;
lastChange = "2017-02-03 19:10:42 +0000";
layers = (
{
layerId = UUID0;
paths = (
{
closed = 1;
nodes = (
"99 0 LINE",
"291 310 LINE",
"480 0 LINE",
"582 0 LINE",
"344 374 LINE",
"565 714 LINE",
"470 714 LINE",
"294 434 LINE",
"119 714 LINE",
"19 714 LINE",
"241 372 LINE",
"4 0 LINE"
);
}
);
width = 586;
}
);
unicode = 10C13;
},
{
glyphname = u10C14;
lastChange = "2017-02-03 19:10:42 +0000";
layers = (
{
layerId = UUID0;
paths = (
{
closed = 1;
nodes = (
"165 0 LINE",
"165 316 LINE",
"348 316 LINE",
"348 0 LINE",
"438 0 LINE",
"438 316 LINE",
"711 316 LINE",
"711 714 LINE",
"621 714 LINE",
"621 400 LINE",
"438 400 LINE",
"438 714 LINE",
"348 714 LINE",
"348 400 LINE",
"75 400 LINE",
"75 0 LINE"
);
}
);
width = 786;
}
);
unicode = 10C14;
},
{
glyphname = u10C15;
lastChange = "2017-02-03 19:10:42 +0000";
layers = (
{
layerId = UUID0;
paths = (
{
closed = 1;
nodes = (
"438 0 LINE",
"438 314 LINE",
"621 314 LINE",
"621 0 LINE",
"711 0 LINE",
"711 398 LINE",
"438 398 LINE",
"438 714 LINE",
"348 714 LINE",
"348 398 LINE",
"165 398 LINE",
"165 714 LINE",
"75 714 LINE",
"75 314 LINE",
"348 314 LINE",
"348 0 LINE"
);
}
);
width = 786;
}
);
unicode = 10C15;
},
{
glyphname = u10C16;
lastChange = "2017-02-03 19:10:42 +0000";
layers = (
{
layerId = UUID0;
paths = (
{
closed = 1;
nodes = (
"397 88 OFFCURVE",
"531 227 OFFCURVE",
"531 361 CURVE SMOOTH",
"531 519 OFFCURVE",
"386 635 OFFCURVE",
"163 724 CURVE",
"100 692 LINE",
"100 23 LINE",
"165 -6 LINE"
);
},
{
closed = 1;
nodes = (
"190 622 LINE",
"361 545 OFFCURVE",
"441 452 OFFCURVE",
"441 359 CURVE SMOOTH",
"441 245 OFFCURVE",
"308 147 OFFCURVE",
"190 95 CURVE"
);
}
);
width = 581;
}
);
unicode = 10C16;
},
{
glyphname = u10C17;
lastChange = "2017-02-03 19:10:42 +0000";
layers = (
{
layerId = UUID0;
paths = (
{
closed = 1;
nodes = (
"555 27 OFFCURVE",
"717 159 OFFCURVE",
"717 359 CURVE SMOOTH",
"717 559 OFFCURVE",
"555 689 OFFCURVE",
"385 689 CURVE SMOOTH",
"205 689 OFFCURVE",
"50 554 OFFCURVE",
"50 360 CURVE SMOOTH",
"50 160 OFFCURVE",
"205 27 OFFCURVE",
"384 27 CURVE SMOOTH"
);
},
{
closed = 1;
nodes = (
"250 108 OFFCURVE",
"141 211 OFFCURVE",
"141 359 CURVE SMOOTH",
"141 506 OFFCURVE",
"250 609 OFFCURVE",
"385 609 CURVE SMOOTH",
"519 609 OFFCURVE",
"625 506 OFFCURVE",
"625 359 CURVE SMOOTH",
"625 211 OFFCURVE",
"519 108 OFFCURVE",
"384 108 CURVE SMOOTH"
);
}
);
width = 767;
}
);
unicode = 10C17;
},
{
glyphname = u10C18;
lastChange = "2017-02-03 19:10:42 +0000";
layers = (
{
layerId = UUID0;
paths = (
{
closed = 1;
nodes = (
"351 0 LINE",
"351 112 LINE SMOOTH",
"351 141 OFFCURVE",
"361 164 OFFCURVE",
"394 192 CURVE SMOOTH",
"480 264 OFFCURVE",
"549 342 OFFCURVE",
"549 486 CURVE SMOOTH",
"549 607 OFFCURVE",
"462 724 OFFCURVE",
"309 724 CURVE SMOOTH",
"145 724 OFFCURVE",
"50 618 OFFCURVE",
"50 472 CURVE SMOOTH",
"50 399 OFFCURVE",
"73 344 OFFCURVE",
"90 322 CURVE",
"181 322 LINE",
"163 348 OFFCURVE",
"140 408 OFFCURVE",
"140 475 CURVE SMOOTH",
"140 566 OFFCURVE",
"194 641 OFFCURVE",
"299 641 CURVE SMOOTH",
"394 641 OFFCURVE",
"459 578 OFFCURVE",
"459 470 CURVE SMOOTH",
"459 384 OFFCURVE",
"418 322 OFFCURVE",
"344 260 CURVE SMOOTH",
"279 206 OFFCURVE",
"261 172 OFFCURVE",
"261 113 CURVE SMOOTH",
"261 0 LINE"
);
}
);
width = 599;
}
);
unicode = 10C18;
},
{
glyphname = u10C19;
lastChange = "2017-02-03 19:10:42 +0000";
layers = (
{
layerId = UUID0;
paths = (
{
closed = 1;
nodes = (
"190 0 LINE",
"190 183 LINE",
"407 275 OFFCURVE",
"482 360 OFFCURVE",
"482 451 CURVE SMOOTH",
"482 532 OFFCURVE",
"420 631 OFFCURVE",
"160 723 CURVE",
"100 684 LINE",
"100 0 LINE"
);
},
{
closed = 1;
nodes = (
"190 629 LINE",
"342 562 OFFCURVE",
"392 499 OFFCURVE",
"392 447 CURVE SMOOTH",
"392 398 OFFCURVE",
"349 339 OFFCURVE",
"190 268 CURVE"
);
}
);
width = 532;
}
);
unicode = 10C19;
},
{
glyphname = u10C1A;
lastChange = "2017-02-03 19:10:42 +0000";
layers = (
{
layerId = UUID0;
paths = (
{
closed = 1;
nodes = (
"378 0 LINE",
"378 563 LINE",
"69 746 LINE",
"20 676 LINE",
"288 517 LINE",
"288 359 LINE",
"69 490 LINE",
"20 420 LINE",
"288 261 LINE",
"288 0 LINE"
);
}
);
width = 478;
}
);
unicode = 10C1A;
},
{
glyphname = u10C1B;
lastChange = "2017-02-03 19:10:42 +0000";
layers = (
{
layerId = UUID0;
paths = (
{
closed = 1;
nodes = (
"317 0 LINE",
"317 255 LINE",
"529 477 LINE",
"272 724 LINE",
"213 665 LINE",
"411 477 LINE",
"272 328 LINE",
"74 516 LINE",
"15 457 LINE",
"227 255 LINE",
"227 0 LINE"
);
}
);
width = 544;
}
);
unicode = 10C1B;
},
{
glyphname = u10C1C;
lastChange = "2017-02-03 19:10:42 +0000";
layers = (
{
layerId = UUID0;
paths = (
{
closed = 1;
nodes = (
"190 0 LINE",
"190 308 LINE",
"443 308 LINE",
"443 0 LINE",
"533 0 LINE",
"533 392 LINE",
"190 392 LINE",
"190 630 LINE",
"443 630 LINE",
"443 515 LINE",
"533 515 LINE",
"533 714 LINE",
"100 714 LINE",
"100 0 LINE"
);
}
);
width = 633;
}
);
unicode = 10C1C;
},
{
glyphname = u10C1D;
lastChange = "2017-02-03 19:10:42 +0000";
layers = (
{
layerId = UUID0;
paths = (
{
closed = 1;
nodes = (
"384 49 OFFCURVE",
"465 126 OFFCURVE",
"465 204 CURVE SMOOTH",
"465 254 OFFCURVE",
"424 316 OFFCURVE",
"319 355 CURVE",
"438 412 OFFCURVE",
"465 465 OFFCURVE",
"465 521 CURVE SMOOTH",
"465 593 OFFCURVE",
"393 663 OFFCURVE",
"163 724 CURVE",
"100 692 LINE",
"100 23 LINE",
"165 -6 LINE"
);
},
{
closed = 1;
nodes = (
"190 338 LINE",
"314 293 OFFCURVE",
"375 242 OFFCURVE",
"375 200 CURVE SMOOTH",
"375 161 OFFCURVE",
"309 112 OFFCURVE",
"190 78 CURVE"
);
},
{
closed = 1;
nodes = (
"190 630 LINE",
"328 592 OFFCURVE",
"375 547 OFFCURVE",
"375 509 CURVE SMOOTH",
"375 459 OFFCURVE",
"318 420 OFFCURVE",
"190 369 CURVE"
);
}
);
width = 515;
}
);
unicode = 10C1D;
},
{
glyphname = u10C1E;
lastChange = "2017-02-03 19:10:42 +0000";
layers = (
{
layerId = UUID0;
paths = (
{
closed = 1;
nodes = (
"378 0 LINE",
"378 714 LINE",
"288 714 LINE",
"288 102 LINE",
"69 259 LINE",
"20 189 LINE",
"288 0 LINE"
);
}
);
width = 478;
}
);
unicode = 10C1E;
},
{
glyphname = u10C1F;
lastChange = "2017-02-03 19:10:42 +0000";
layers = (
{
layerId = UUID0;
paths = (
{
closed = 1;
nodes = (
"345 0 LINE",
"598 693 LINE",
"512 723 LINE",
"346 258 LINE SMOOTH",
"325 198 OFFCURVE",
"309 147 OFFCURVE",
"300 100 CURVE",
"290 147 OFFCURVE",
"275 197 OFFCURVE",
"254 256 CURVE SMOOTH",
"86 723 LINE",
"1 693 LINE",
"255 0 LINE"
);
}
);
width = 600;
}
);
unicode = 10C1F;
},
{
glyphname = u10C20;
lastChange = "2017-02-03 19:10:42 +0000";
layers = (
{
layerId = UUID0;
paths = (
{
closed = 1;
nodes = (
"328 0 LINE",
"328 427 LINE",
"511 679 LINE",
"438 724 LINE",
"283 508 LINE",
"128 724 LINE",
"55 679 LINE",
"238 427 LINE",
"238 0 LINE"
);
}
);
width = 566;
}
);
unicode = 10C20;
},
{
glyphname = u10C21;
lastChange = "2017-02-03 19:10:42 +0000";
layers = (
{
layerId = UUID0;
paths = (
{
closed = 1;
nodes = (
"183 0 LINE",
"183 584 LINE",
"373 419 LINE",
"564 584 LINE",
"564 0 LINE",
"653 0 LINE",
"653 710 LINE",
"606 720 LINE",
"374 525 LINE",
"147 720 LINE",
"100 710 LINE",
"100 0 LINE"
);
}
);
width = 753;
}
);
unicode = 10C21;
},
{
glyphname = u10C22;
lastChange = "2017-02-03 19:10:42 +0000";
layers = (
{
layerId = UUID0;
paths = (
{
closed = 1;
nodes = (
"770 354 LINE",
"381 728 LINE",
"328 673 LINE",
"448 558 LINE",
"276 408 LINE",
"46 609 LINE",
"46 504 LINE",
"216 355 LINE",
"46 207 LINE",
"46 102 LINE",
"276 303 LINE",
"449 151 LINE",
"328 33 LINE",
"381 -19 LINE"
);
},
{
closed = 1;
nodes = (
"336 355 LINE",
"506 503 LINE",
"660 354 LINE",
"506 206 LINE"
);
}
);
width = 785;
}
);
unicode = 10C22;
},
{
glyphname = u10C23;
lastChange = "2017-02-03 19:10:42 +0000";
layers = (
{
layerId = UUID0;
paths = (
{
closed = 1;
nodes = (
"266 103 OFFCURVE",
"384 225 OFFCURVE",
"384 361 CURVE SMOOTH",
"384 503 OFFCURVE",
"266 619 OFFCURVE",
"73 731 CURVE",
"25 661 LINE",
"199 558 OFFCURVE",
"294 460 OFFCURVE",
"294 361 CURVE SMOOTH",
"294 262 OFFCURVE",
"202 163 OFFCURVE",
"26 62 CURVE",
"73 -9 LINE"
);
}
);
width = 444;
}
);
unicode = 10C23;
},
{
glyphname = u10C24;
lastChange = "2017-02-03 19:10:42 +0000";
layers = (
{
layerId = UUID0;
paths = (
{
closed = 1;
nodes = (
"165 0 LINE",
"165 286 LINE",
"357 166 LINE",
"357 0 LINE",
"447 0 LINE",
"447 440 LINE",
"639 331 LINE",
"729 331 LINE",
"729 714 LINE",
"639 714 LINE",
"639 427 LINE",
"447 537 LINE",
"447 714 LINE",
"357 714 LINE",
"357 263 LINE",
"165 382 LINE",
"75 382 LINE",
"75 0 LINE"
);
}
);
width = 804;
}
);
unicode = 10C24;
},
{
glyphname = u10C25;
lastChange = "2017-02-03 19:10:42 +0000";
layers = (
{
layerId = UUID0;
paths = (
{
closed = 1;
nodes = (
"165 0 LINE",
"165 273 LINE",
"411 0 LINE",
"501 0 LINE",
"501 588 LINE",
"747 311 LINE",
"837 311 LINE",
"837 714 LINE",
"747 714 LINE",
"747 441 LINE",
"501 714 LINE",
"411 714 LINE",
"411 126 LINE",
"165 403 LINE",
"75 403 LINE",
"75 0 LINE"
);
}
);
width = 912;
}
);
unicode = 10C25;
},
{
glyphname = u10C26;
lastChange = "2017-02-03 19:10:42 +0000";
layers = (
{
layerId = UUID0;
paths = (
{
closed = 1;
nodes = (
"575 27 OFFCURVE",
"737 159 OFFCURVE",
"737 359 CURVE SMOOTH",
"737 462 OFFCURVE",
"693 547 OFFCURVE",
"628 605 CURVE",
"570 544 LINE",
"616 500 OFFCURVE",
"645 435 OFFCURVE",
"645 359 CURVE SMOOTH",
"645 211 OFFCURVE",
"539 108 OFFCURVE",
"404 108 CURVE SMOOTH",
"270 108 OFFCURVE",
"161 211 OFFCURVE",
"161 359 CURVE SMOOTH",
"161 438 OFFCURVE",
"192 505 OFFCURVE",
"242 549 CURVE",
"182 608 LINE",
"114 550 OFFCURVE",
"70 463 OFFCURVE",
"70 360 CURVE SMOOTH",
"70 160 OFFCURVE",
"225 27 OFFCURVE",
"404 27 CURVE SMOOTH"
);
},
{
closed = 1;
nodes = (
"435 216 OFFCURVE",
"460 232 OFFCURVE",
"460 268 CURVE SMOOTH",
"460 304 OFFCURVE",
"435 320 OFFCURVE",
"407 320 CURVE SMOOTH",
"377 320 OFFCURVE",
"353 304 OFFCURVE",
"353 268 CURVE SMOOTH",
"353 232 OFFCURVE",
"377 216 OFFCURVE",
"407 216 CURVE SMOOTH"
);
},
{
closed = 1;
nodes = (
"352 357 OFFCURVE",
"377 374 OFFCURVE",
"377 410 CURVE SMOOTH",
"377 446 OFFCURVE",
"352 462 OFFCURVE",
"324 462 CURVE SMOOTH",
"295 462 OFFCURVE",
"271 446 OFFCURVE",
"271 410 CURVE SMOOTH",
"271 374 OFFCURVE",
"295 357 OFFCURVE",
"324 357 CURVE SMOOTH"
);
},
{
closed = 1;
nodes = (
"517 363 OFFCURVE",
"542 380 OFFCURVE",
"542 415 CURVE SMOOTH",
"542 451 OFFCURVE",
"517 467 OFFCURVE",
"490 467 CURVE SMOOTH",
"460 467 OFFCURVE",
"436 451 OFFCURVE",
"436 415 CURVE SMOOTH",
"436 380 OFFCURVE",
"460 363 OFFCURVE",
"490 363 CURVE SMOOTH"
);
}
);
width = 807;
}
);
unicode = 10C26;
},
{
glyphname = u10C27;
lastChange = "2017-02-03 19:10:42 +0000";
layers = (
{
layerId = UUID0;
paths = (
{
closed = 1;
nodes = (
"575 27 OFFCURVE",
"737 159 OFFCURVE",
"737 359 CURVE SMOOTH",
"737 559 OFFCURVE",
"575 689 OFFCURVE",
"405 689 CURVE SMOOTH",
"225 689 OFFCURVE",
"70 554 OFFCURVE",
"70 360 CURVE SMOOTH",
"70 160 OFFCURVE",
"225 27 OFFCURVE",
"404 27 CURVE SMOOTH"
);
},
{
closed = 1;
nodes = (
"270 108 OFFCURVE",
"161 211 OFFCURVE",
"161 359 CURVE SMOOTH",
"161 506 OFFCURVE",
"270 609 OFFCURVE",
"405 609 CURVE SMOOTH",
"539 609 OFFCURVE",
"645 506 OFFCURVE",
"645 359 CURVE SMOOTH",
"645 211 OFFCURVE",
"539 108 OFFCURVE",
"404 108 CURVE SMOOTH"
);
},
{
closed = 1;
nodes = (
"434 303 OFFCURVE",
"458 321 OFFCURVE",
"458 359 CURVE SMOOTH",
"458 398 OFFCURVE",
"434 415 OFFCURVE",
"407 415 CURVE SMOOTH",
"378 415 OFFCURVE",
"355 398 OFFCURVE",
"355 359 CURVE SMOOTH",
"355 321 OFFCURVE",
"378 303 OFFCURVE",
"407 303 CURVE SMOOTH"
);
}
);
width = 807;
}
);
unicode = 10C27;
},
{
glyphname = u10C28;
lastChange = "2017-02-03 19:10:42 +0000";
layers = (
{
layerId = UUID0;
paths = (
{
closed = 1;
nodes = (
"170 0 LINE",
"170 29 LINE SMOOTH",
"170 108 OFFCURVE",
"231 167 OFFCURVE",
"384 252 CURVE",
"239 357 LINE",
"384 462 LINE",
"231 547 OFFCURVE",
"170 606 OFFCURVE",
"170 685 CURVE SMOOTH",
"170 714 LINE",
"80 714 LINE",
"80 679 LINE SMOOTH",
"80 594 OFFCURVE",
"131 523 OFFCURVE",
"250 456 CURVE",
"116 357 LINE",
"250 258 LINE",
"131 191 OFFCURVE",
"80 120 OFFCURVE",
"80 35 CURVE SMOOTH",
"80 0 LINE"
);
}
);
width = 409;
}
);
unicode = 10C28;
},
{
glyphname = u10C29;
lastChange = "2017-02-03 19:10:42 +0000";
layers = (
{
layerId = UUID0;
paths = (
{
closed = 1;
nodes = (
"367 40 LINE",
"169 238 LINE",
"407 476 LINE",
"150 734 LINE",
"89 671 LINE",
"284 476 LINE",
"45 238 LINE",
"304 -20 LINE"
);
}
);
width = 453;
}
);
unicode = 10C29;
},
{
glyphname = u10C2A;
lastChange = "2017-02-03 19:10:42 +0000";
layers = (
{
layerId = UUID0;
paths = (
{
closed = 1;
nodes = (
"277 63 OFFCURVE",
"366 155 OFFCURVE",
"366 256 CURVE SMOOTH",
"366 290 OFFCURVE",
"350 323 OFFCURVE",
"329 355 CURVE",
"350 387 OFFCURVE",
"366 420 OFFCURVE",
"366 454 CURVE SMOOTH",
"366 556 OFFCURVE",
"277 648 OFFCURVE",
"86 729 CURVE",
"50 656 LINE",
"219 589 OFFCURVE",
"281 519 OFFCURVE",
"281 454 CURVE SMOOTH",
"281 443 OFFCURVE",
"278 428 OFFCURVE",
"272 417 CURVE",
"251 435 OFFCURVE",
"223 457 OFFCURVE",
"194 474 CURVE",
"153 406 LINE",
"182 389 OFFCURVE",
"212 372 OFFCURVE",
"230 355 CURVE",
"212 338 OFFCURVE",
"180 320 OFFCURVE",
"151 303 CURVE",
"189 234 LINE",
"219 252 OFFCURVE",
"249 271 OFFCURVE",
"271 289 CURVE",
"277 278 OFFCURVE",
"281 267 OFFCURVE",
"281 256 CURVE SMOOTH",
"281 191 OFFCURVE",
"219 121 OFFCURVE",
"50 55 CURVE",
"86 -17 LINE"
);
}
);
width = 426;
}
);
unicode = 10C2A;
},
{
glyphname = u10C2B;
lastChange = "2017-02-03 19:10:42 +0000";
layers = (
{
layerId = UUID0;
paths = (
{
closed = 1;
nodes = (
"376 56 LINE",
"207 123 OFFCURVE",
"145 193 OFFCURVE",
"145 258 CURVE SMOOTH",
"145 269 OFFCURVE",
"148 284 OFFCURVE",
"154 295 CURVE",
"175 277 OFFCURVE",
"203 255 OFFCURVE",
"232 238 CURVE",
"273 306 LINE",
"244 323 OFFCURVE",
"214 340 OFFCURVE",
"196 357 CURVE",
"214 374 OFFCURVE",
"246 392 OFFCURVE",
"275 409 CURVE",
"237 478 LINE",
"207 460 OFFCURVE",
"177 441 OFFCURVE",
"155 423 CURVE",
"149 434 OFFCURVE",
"145 445 OFFCURVE",
"145 456 CURVE SMOOTH",
"145 521 OFFCURVE",
"207 591 OFFCURVE",
"376 657 CURVE",
"340 729 LINE",
"149 649 OFFCURVE",
"60 557 OFFCURVE",
"60 456 CURVE SMOOTH",
"60 422 OFFCURVE",
"76 389 OFFCURVE",
"97 357 CURVE",
"76 325 OFFCURVE",
"60 292 OFFCURVE",
"60 258 CURVE SMOOTH",
"60 156 OFFCURVE",
"149 64 OFFCURVE",
"340 -17 CURVE"
);
}
);
width = 426;
}
);
unicode = 10C2B;
},
{
glyphname = u10C2C;
lastChange = "2017-02-03 19:10:42 +0000";
layers = (
{
layerId = UUID0;
paths = (
{
closed = 1;
nodes = (
"749 357 LINE",
"382 724 LINE",
"15 357 LINE",
"382 -10 LINE"
);
},
{
closed = 1;
nodes = (
"133 357 LINE",
"382 606 LINE",
"631 357 LINE",
"382 108 LINE"
);
},
{
closed = 1;
nodes = (
"409 301 OFFCURVE",
"433 319 OFFCURVE",
"433 357 CURVE SMOOTH",
"433 396 OFFCURVE",
"409 413 OFFCURVE",
"382 413 CURVE SMOOTH",
"353 413 OFFCURVE",
"330 396 OFFCURVE",
"330 357 CURVE SMOOTH",
"330 319 OFFCURVE",
"353 301 OFFCURVE",
"382 301 CURVE SMOOTH"
);
}
);
width = 764;
}
);
unicode = 10C2C;
},
{
glyphname = u10C2D;
lastChange = "2017-02-03 19:10:42 +0000";
layers = (
{
layerId = UUID0;
paths = (
{
closed = 1;
nodes = (
"378 0 LINE",
"378 714 LINE",
"288 714 LINE",
"288 363 LINE",
"69 520 LINE",
"20 450 LINE",
"288 261 LINE",
"288 0 LINE"
);
}
);
width = 478;
}
);
unicode = 10C2D;
},
{
glyphname = u10C2E;
lastChange = "2017-02-03 19:10:42 +0000";
layers = (
{
layerId = UUID0;
paths = (
{
closed = 1;
nodes = (
"190 0 LINE",
"190 261 LINE",
"458 450 LINE",
"409 520 LINE",
"190 363 LINE",
"190 714 LINE",
"100 714 LINE",
"100 0 LINE"
);
}
);
width = 478;
}
);
unicode = 10C2E;
},
{
glyphname = u10C2F;
lastChange = "2017-02-03 19:10:42 +0000";
layers = (
{
layerId = UUID0;
paths = (
{
closed = 1;
nodes = (
"378 0 LINE",
"378 714 LINE",
"288 714 LINE",
"20 525 LINE",
"69 455 LINE",
"288 612 LINE",
"288 0 LINE"
);
}
);
width = 478;
}
);
unicode = 10C2F;
},
{
glyphname = u10C30;
lastChange = "2017-02-03 19:10:42 +0000";
layers = (
{
layerId = UUID0;
paths = (
{
closed = 1;
nodes = (
"190 0 LINE",
"190 202 LINE",
"443 282 LINE",
"443 0 LINE",
"533 0 LINE",
"533 392 LINE",
"190 286 LINE",
"190 524 LINE",
"443 604 LINE",
"443 515 LINE",
"533 515 LINE",
"533 714 LINE",
"190 607 LINE",
"190 714 LINE",
"100 714 LINE",
"100 0 LINE"
);
}
);
width = 633;
}
);
unicode = 10C30;
},
{
glyphname = u10C31;
lastChange = "2017-02-03 19:10:42 +0000";
layers = (
{
layerId = UUID0;
paths = (
{
closed = 1;
nodes = (
"348 0 LINE",
"348 346 LINE",
"593 672 LINE",
"528 721 LINE",
"348 481 LINE",
"348 714 LINE",
"258 714 LINE",
"258 481 LINE",
"78 721 LINE",
"13 672 LINE",
"258 346 LINE",
"258 0 LINE"
);
}
);
width = 606;
}
);
unicode = 10C31;
},
{
glyphname = u10C32;
lastChange = "2017-02-03 19:10:42 +0000";
layers = (
{
layerId = UUID0;
paths = (
{
closed = 1;
nodes = (
"283 216 LINE",
"438 0 LINE",
"511 45 LINE",
"328 297 LINE",
"328 724 LINE",
"238 724 LINE",
"238 297 LINE",
"55 45 LINE",
"128 0 LINE"
);
}
);
width = 566;
}
);
unicode = 10C32;
},
{
glyphname = u10C33;
lastChange = "2017-02-03 19:10:42 +0000";
layers = (
{
layerId = UUID0;
paths = (
{
closed = 1;
nodes = (
"289 227 LINE",
"438 0 LINE",
"511 45 LINE",
"75 714 LINE",
"-34 714 LINE",
"239 300 LINE",
"55 45 LINE",
"128 0 LINE"
);
}
);
width = 560;
}
);
unicode = 10C33;
},
{
glyphname = u10C34;
lastChange = "2017-02-03 19:10:42 +0000";
layers = (
{
layerId = UUID0;
paths = (
{
closed = 1;
nodes = (
"155 0 LINE",
"190 64 OFFCURVE",
"213 129 OFFCURVE",
"213 210 CURVE SMOOTH",
"213 245 OFFCURVE",
"210 293 OFFCURVE",
"196 333 CURVE",
"416 205 LINE",
"416 0 LINE",
"506 0 LINE",
"506 714 LINE",
"416 714 LINE",
"416 297 LINE",
"141 455 LINE",
"87 410 LINE",
"112 350 OFFCURVE",
"126 287 OFFCURVE",
"126 215 CURVE SMOOTH",
"126 143 OFFCURVE",
"104 70 OFFCURVE",
"60 0 CURVE"
);
}
);
width = 606;
}
);
unicode = 10C34;
},
{
glyphname = u10C35;
lastChange = "2017-02-03 19:10:42 +0000";
layers = (
{
layerId = UUID0;
paths = (
{
closed = 1;
nodes = (
"190 0 LINE",
"190 588 LINE",
"566 191 LINE",
"656 191 LINE",
"656 714 LINE",
"566 714 LINE",
"566 321 LINE",
"190 714 LINE",
"100 714 LINE",
"100 0 LINE"
);
}
);
width = 746;
}
);
unicode = 10C35;
},
{
glyphname = u10C36;
lastChange = "2017-02-03 19:10:42 +0000";
layers = (
{
layerId = UUID0;
paths = (
{
closed = 1;
nodes = (
"502 0 LINE",
"502 714 LINE",
"412 714 LINE",
"40 399 LINE",
"40 310 LINE",
"412 0 LINE"
);
},
{
closed = 1;
nodes = (
"123 357 LINE",
"412 605 LINE",
"412 112 LINE"
);
}
);
width = 602;
}
);
unicode = 10C36;
},
{
glyphname = u10C37;
lastChange = "2017-02-03 19:10:42 +0000";
layers = (
{
layerId = UUID0;
paths = (
{
closed = 1;
nodes = (
"190 0 LINE",
"562 310 LINE",
"562 399 LINE",
"190 714 LINE",
"100 714 LINE",
"100 0 LINE"
);
},
{
closed = 1;
nodes = (
"190 605 LINE",
"479 357 LINE",
"190 112 LINE"
);
}
);
width = 602;
}
);
unicode = 10C37;
},
{
glyphname = u10C38;
lastChange = "2017-02-03 19:10:42 +0000";
layers = (
{
layerId = UUID0;
paths = (
{
closed = 1;
nodes = (
"341 0 LINE",
"377 106 OFFCURVE",
"448 203 OFFCURVE",
"603 211 CURVE",
"603 293 LINE",
"469 286 OFFCURVE",
"395 232 OFFCURVE",
"354 179 CURVE",
"354 714 LINE",
"264 714 LINE",
"264 179 LINE",
"223 232 OFFCURVE",
"149 286 OFFCURVE",
"15 293 CURVE",
"15 211 LINE",
"170 203 OFFCURVE",
"241 106 OFFCURVE",
"277 0 CURVE"
);
}
);
width = 618;
}
);
unicode = 10C38;
},
{
glyphname = u10C39;
lastChange = "2017-02-03 19:10:42 +0000";
layers = (
{
layerId = UUID0;
paths = (
{
closed = 1;
nodes = (
"354 0 LINE",
"354 535 LINE",
"395 482 OFFCURVE",
"469 428 OFFCURVE",
"603 421 CURVE",
"603 503 LINE",
"448 511 OFFCURVE",
"377 608 OFFCURVE",
"341 714 CURVE",
"277 714 LINE",
"241 608 OFFCURVE",
"170 511 OFFCURVE",
"15 503 CURVE",
"15 421 LINE",
"149 428 OFFCURVE",
"223 482 OFFCURVE",
"264 535 CURVE",
"264 0 LINE"
);
}
);
width = 618;
}
);
unicode = 10C39;
},
{
glyphname = u10C3A;
lastChange = "2017-02-03 19:10:42 +0000";
layers = (
{
layerId = UUID0;
paths = (
{
closed = 1;
nodes = (
"506 0 LINE",
"506 714 LINE",
"416 714 LINE",
"416 509 LINE",
"196 381 LINE",
"210 421 OFFCURVE",
"213 469 OFFCURVE",
"213 504 CURVE SMOOTH",
"213 585 OFFCURVE",
"190 650 OFFCURVE",
"155 714 CURVE",
"60 714 LINE",
"104 644 OFFCURVE",
"126 571 OFFCURVE",
"126 499 CURVE SMOOTH",
"126 427 OFFCURVE",
"112 364 OFFCURVE",
"87 304 CURVE",
"141 259 LINE",
"416 417 LINE",
"416 0 LINE"
);
}
);
width = 606;
}
);
unicode = 10C3A;
},
{
glyphname = u10C3B;
lastChange = "2017-02-03 19:10:42 +0000";
layers = (
{
layerId = UUID0;
paths = (
{
closed = 1;
nodes = (
"501 0 LINE",
"501 714 LINE",
"411 714 LINE",
"165 441 LINE",
"165 714 LINE",
"75 714 LINE",
"75 311 LINE",
"165 311 LINE",
"411 588 LINE",
"411 0 LINE"
);
}
);
width = 601;
}
);
unicode = 10C3B;
},
{
glyphname = u10C3C;
lastChange = "2017-02-03 19:10:42 +0000";
layers = (
{
layerId = UUID0;
paths = (
{
closed = 1;
nodes = (
"354 0 LINE",
"354 499 LINE",
"439 600 LINE",
"540 500 LINE",
"603 560 LINE",
"439 724 LINE",
"309 576 LINE",
"179 724 LINE",
"15 560 LINE",
"78 500 LINE",
"179 600 LINE",
"264 499 LINE",
"264 0 LINE"
);
}
);
width = 618;
}
);
unicode = 10C3C;
},
{
glyphname = u10C3D;
lastChange = "2017-02-03 19:10:42 +0000";
layers = (
{
layerId = UUID0;
paths = (
{
closed = 1;
nodes = (
"415 0 LINE",
"430 28 OFFCURVE",
"450 82 OFFCURVE",
"450 130 CURVE SMOOTH",
"450 244 OFFCURVE",
"370 299 OFFCURVE",
"302 349 CURVE",
"340 518 OFFCURVE",
"381 572 OFFCURVE",
"453 572 CURVE",
"453 662 LINE",
"331 662 OFFCURVE",
"267 574 OFFCURVE",
"229 395 CURVE",
"178 434 OFFCURVE",
"136 480 OFFCURVE",
"136 549 CURVE SMOOTH",
"136 626 OFFCURVE",
"187 651 OFFCURVE",
"197 661 CURVE",
"148 724 LINE",
"104 704 OFFCURVE",
"45 644 OFFCURVE",
"45 551 CURVE SMOOTH",
"45 306 OFFCURVE",
"361 297 OFFCURVE",
"361 121 CURVE SMOOTH",
"361 77 OFFCURVE",
"340 26 OFFCURVE",
"325 0 CURVE"
);
}
);
width = 523;
}
);
unicode = 10C3D;
},
{
glyphname = u10C3E;
lastChange = "2017-02-03 19:10:42 +0000";
layers = (
{
layerId = UUID0;
paths = (
{
closed = 1;
nodes = (
"190 0 LINE",
"190 714 LINE",
"100 714 LINE",
"100 0 LINE"
);
}
);
width = 290;
}
);
unicode = 10C3E;
},
{
glyphname = u10C3F;
lastChange = "2017-02-03 19:10:42 +0000";
layers = (
{
layerId = UUID0;
paths = (
{
closed = 1;
nodes = (
"661 40 LINE",
"661 674 LINE",
"95 674 LINE",
"95 40 LINE"
);
},
{
closed = 1;
nodes = (
"182 595 LINE",
"574 595 LINE",
"574 119 LINE",
"182 119 LINE"
);
}
);
width = 756;
}
);
unicode = 10C3F;
},
{
glyphname = u10C40;
lastChange = "2017-02-03 19:10:42 +0000";
layers = (
{
layerId = UUID0;
paths = (
{
closed = 1;
nodes = (
"382 606 LINE",
"690 298 LINE",
"749 357 LINE",
"382 724 LINE",
"15 357 LINE",
"74 298 LINE"
);
}
);
width = 764;
}
);
unicode = 10C40;
},
{
glyphname = u10C41;
lastChange = "2017-02-03 19:10:42 +0000";
layers = (
{
layerId = UUID0;
paths = (
{
closed = 1;
nodes = (
"330 0 LINE",
"330 275 LINE",
"499 275 LINE",
"499 347 LINE",
"330 347 LINE",
"330 427 LINE",
"513 679 LINE",
"440 724 LINE",
"285 508 LINE",
"130 724 LINE",
"57 679 LINE",
"240 427 LINE",
"240 347 LINE",
"71 347 LINE",
"71 275 LINE",
"240 275 LINE",
"240 0 LINE"
);
}
);
width = 572;
}
);
unicode = 10C41;
},
{
glyphname = u10C42;
lastChange = "2017-02-03 19:10:42 +0000";
layers = (
{
layerId = UUID0;
paths = (
{
closed = 1;
nodes = (
"328 0 LINE",
"328 427 LINE",
"415 546 LINE",
"501 480 LINE",
"545 537 LINE",
"457 605 LINE",
"511 679 LINE",
"438 724 LINE",
"390 658 LINE",
"306 724 LINE",
"261 666 LINE",
"348 598 LINE",
"283 508 LINE",
"128 724 LINE",
"55 679 LINE",
"238 427 LINE",
"238 0 LINE"
);
}
);
width = 636;
}
);
unicode = 10C42;
},
{
glyphname = u10C43;
lastChange = "2017-02-03 19:10:42 +0000";
layers = (
{
layerId = UUID0;
paths = (
{
closed = 1;
nodes = (
"369 0 LINE",
"577 228 LINE",
"369 434 LINE",
"369 608 LINE",
"559 453 LINE",
"603 517 LINE",
"324 742 LINE",
"45 517 LINE",
"89 453 LINE",
"279 608 LINE",
"279 434 LINE",
"71 228 LINE",
"279 0 LINE"
);
},
{
closed = 1;
nodes = (
"184 226 LINE",
"324 368 LINE",
"464 226 LINE",
"324 76 LINE"
);
}
);
width = 648;
}
);
unicode = 10C43;
},
{
glyphname = u10C44;
lastChange = "2017-02-03 19:10:42 +0000";
layers = (
{
layerId = UUID0;
paths = (
{
closed = 1;
nodes = (
"382 606 LINE",
"690 298 LINE",
"749 357 LINE",
"382 724 LINE",
"15 357 LINE",
"74 298 LINE"
);
},
{
closed = 1;
nodes = (
"382 298 LINE",
"690 -10 LINE",
"749 49 LINE",
"382 416 LINE",
"15 49 LINE",
"74 -10 LINE"
);
}
);
width = 764;
}
);
unicode = 10C44;
},
{
glyphname = u10C45;
lastChange = "2017-02-03 19:10:42 +0000";
layers = (
{
layerId = UUID0;
paths = (
{
closed = 1;
nodes = (
"190 0 LINE",
"190 205 LINE",
"410 333 LINE",
"396 293 OFFCURVE",
"393 245 OFFCURVE",
"393 210 CURVE SMOOTH",
"393 129 OFFCURVE",
"416 64 OFFCURVE",
"451 0 CURVE",
"546 0 LINE",
"502 70 OFFCURVE",
"480 143 OFFCURVE",
"480 215 CURVE SMOOTH",
"480 287 OFFCURVE",
"494 350 OFFCURVE",
"519 410 CURVE",
"465 455 LINE",
"190 297 LINE",
"190 714 LINE",
"100 714 LINE",
"100 0 LINE"
);
}
);
width = 606;
}
);
unicode = 10C45;
},
{
glyphname = u10C46;
lastChange = "2017-02-03 19:10:42 +0000";
layers = (
{
layerId = UUID0;
paths = (
{
closed = 1;
nodes = (
"646 0 LINE",
"646 714 LINE",
"556 714 LINE",
"180 321 LINE",
"180 714 LINE",
"90 714 LINE",
"90 191 LINE",
"180 191 LINE",
"556 588 LINE",
"556 0 LINE"
);
}
);
width = 746;
}
);
unicode = 10C46;
},
{
glyphname = u10C47;
lastChange = "2017-02-03 19:10:42 +0000";
layers = (
{
layerId = UUID0;
paths = (
{
closed = 1;
nodes = (
"673 38 OFFCURVE",
"717 125 OFFCURVE",
"717 228 CURVE SMOOTH",
"717 374 OFFCURVE",
"634 484 OFFCURVE",
"520 533 CURVE",
"678 714 LINE",
"564 714 LINE",
"432 557 LINE",
"430 557 OFFCURVE",
"429 558 OFFCURVE",
"428 558 CURVE",
"428 714 LINE",
"338 714 LINE",
"338 558 LINE",
"184 537 OFFCURVE",
"50 411 OFFCURVE",
"50 229 CURVE SMOOTH",
"50 126 OFFCURVE",
"94 41 OFFCURVE",
"159 -17 CURVE",
"217 44 LINE",
"171 88 OFFCURVE",
"142 153 OFFCURVE",
"142 229 CURVE SMOOTH",
"142 377 OFFCURVE",
"248 480 OFFCURVE",
"383 480 CURVE SMOOTH",
"517 480 OFFCURVE",
"626 377 OFFCURVE",
"626 229 CURVE SMOOTH",
"626 150 OFFCURVE",
"595 83 OFFCURVE",
"545 39 CURVE",
"605 -20 LINE"
);
}
);
width = 771;
}
);
unicode = 10C47;
},
{
glyphname = u10C48;
lastChange = "2017-02-03 19:10:42 +0000";
layers = (
{
layerId = UUID0;
paths = (
{
closed = 1;
nodes = (
"188 0 LINE",
"394 289 LINE",
"603 0 LINE",
"686 0 LINE",
"686 714 LINE",
"603 714 LINE",
"394 424 LINE",
"188 714 LINE",
"100 714 LINE",
"100 0 LINE"
);
},
{
closed = 1;
nodes = (
"188 563 LINE",
"192 563 LINE",
"342 357 LINE",
"192 150 LINE",
"188 150 LINE"
);
},
{
closed = 1;
nodes = (
"447 357 LINE",
"599 569 LINE",
"603 569 LINE",
"603 144 LINE",
"599 144 LINE"
);
}
);
width = 786;
}
);
unicode = 10C48;
},
